{
  "accessors": [
    {
      "bufferView": 1,
      "componentType": 5126,
      "count": 65532,
      "max": [
        7.056457996368408,
        4.699594974517822,
        6.508551597595215
      ],
      "min": [
        0.10019683837890625,
        0.34932780265808105,
        0.5874433517456055
      ],
      "type": "VEC3"
    },
    {
      "bufferView": 1,
      "byteOffset": 786384,
      "componentType": 5126,
      "count": 65532,
      "max": [
        0.9999893307685852,
        0.9999781250953674,
        0.9999982118606567
      ],
      "min": [
        -0.9999758005142212,
        -0.9999983310699463,
        -1.0
      ],
      "type": "VEC3"
    },
    {
      "bufferView": 0,
      "componentType": 5125,
      "count": 304182,
      "type": "SCALAR"
    },
    {
      "bufferView": 1,
      "byteOffset": 1572768,
      "componentType": 5126,
      "count": 65532,
      "max": [
        7.118250846862793,
        4.2051215171813965,
        6.742185592651367
      ],
      "min": [
        1.9431006908416748,
        0.8264783620834351,
        0.5788846015930176
      ],
      "type": "VEC3"
    },
    {
      "bufferView": 1,
      "byteOffset": 2359152,
      "componentType": 5126,
      "count": 65532,
      "max": [
        0.9998828768730164,
        0.9999635815620422,
        0.9999876022338867
      ],
      "min": [
        -0.9999918937683105,
        -0.9999995827674866,
        -1.0
      ],
      "type": "VEC3"
    },
    {
      "bufferView": 0,
      "byteOffset": 1216728,
      "componentType": 5125,
      "count": 311448,
      "type": "SCALAR"
    },
    {
      "bufferView": 1,
      "byteOffset": 3145536,
      "componentType": 5126,
      "count": 65532,
      "max": [
        7.056392669677734,
        4.638912200927734,
        6.731659412384033
      ],
      "min": [
        0.0755772590637207,
        0.8225157260894775,
        0.5248579978942871
      ],
      "type": "VEC3"
    },
    {
      "bufferView": 1,
      "byteOffset": 3931920,
      "componentType": 5126,
      "count": 65532,
      "max": [
        0.9999802112579346,
        0.999990701675415,
        0.9999892711639404
      ],
      "min": [
        -0.9999886155128479,
        -0.9999916553497314,
        -1.0
      ],
      "type": "VEC3"
    },
    {
      "bufferView": 0,
      "byteOffset": 2462520,
      "componentType": 5125,
      "count": 316311,
      "type": "SCALAR"
    },
    {
      "bufferView": 1,
      "byteOffset": 4718304,
      "componentType": 5126,
      "count": 65532,
      "max": [
        7.0421857833862305,
        4.0680131912231445,
        6.498281002044678
      ],
      "min": [
        1.951608657836914,
        0.8437474966049194,
        0.5316042900085449
      ],
      "type": "VEC3"
    },
    {
      "bufferView": 1,
      "byteOffset": 5504688,
      "componentType": 5126,
      "count": 65532,
      "max": [
        0.9999963641166687,
        0.9999781250953674,
        0.9999719858169556
      ],
      "min": [
        -0.9999918937683105,
        -0.99997878074646,
        -0.9999716281890869
      ],
      "type": "VEC3"
    },
    {
      "bufferView": 0,
      "byteOffset": 3727764,
      "componentType": 5125,
      "count": 309429,
      "type": "SCALAR"
    },
    {
      "bufferView": 1,
      "byteOffset": 6291072,
      "componentType": 5126,
      "count": 65532,
      "max": [
        7.044356346130371,
        4.697168350219727,
        6.767364501953125
      ],
      "min": [
        1.9431231021881104,
        0.5419497489929199,
        0.5248250961303711
      ],
      "type": "VEC3"
    },
    {
      "bufferView": 1,
      "byteOffset": 7077456,
      "componentType": 5126,
      "count": 65532,
      "max": [
        0.9999633431434631,
        0.9999972581863403,
        0.9999640583992004
      ],
      "min": [
        -0.9999359250068665,
        -0.99998539686203,
        -0.9999983906745911
      ],
      "type": "VEC3"
    },
    {
      "bufferView": 0,
      "byteOffset": 4965480,
      "componentType": 5125,
      "count": 308814,
      "type": "SCALAR"
    },
    {
      "bufferView": 1,
      "byteOffset": 7863840,
      "componentType": 5126,
      "count": 65532,
      "max": [
        7.260747909545898,
        4.548442363739014,
        6.440195560455322
      ],
      "min": [
        0.24796056747436523,
        0.08859968185424805,
        0.552039623260498
      ],
      "type": "VEC3"
    },
    {
      "bufferView": 1,
      "byteOffset": 8650224,
      "componentType": 5126,
      "count": 65532,
      "max": [
        0.9999983906745911,
        0.9999197125434875,
        0.9999975562095642
      ],
      "min": [
        -0.9999546408653259,
        -0.999980092048645,
        -0.9999945759773254
      ],
      "type": "VEC3"
    },
    {
      "bufferView": 0,
      "byteOffset": 6200736,
      "componentType": 5125,
      "count": 313455,
      "type": "SCALAR"
    },
    {
      "bufferView": 1,
      "byteOffset": 9436608,
      "componentType": 5126,
      "count": 65532,
      "max": [
        7.251328468322754,
        4.507513999938965,
        6.400505065917969
      ],
      "min": [
        0.2208561897277832,
        2.002716064453125e-05,
        0.0
      ],
      "type": "VEC3"
    },
    {
      "bufferView": 1,
      "byteOffset": 10222992,
      "componentType": 5126,
      "count": 65532,
      "max": [
        0.9999893307685852,
        0.9999590516090393,
        1.0
      ],
      "min": [
        -0.9999518990516663,
        -0.9999831914901733,
        -1.0
      ],
      "type": "VEC3"
    },
    {
      "bufferView": 0,
      "byteOffset": 7454556,
      "componentType": 5125,
      "count": 313287,
      "type": "SCALAR"
    },
    {
      "bufferView": 1,
      "byteOffset": 11009376,
      "componentType": 5126,
      "count": 65532,
      "max": [
        7.260747909545898,
        4.657939434051514,
        6.765669345855713
      ],
      "min": [
        0.5690743923187256,
        0.08416557312011719,
        0.05705738067626953
      ],
      "type": "VEC3"
    },
    {
      "bufferView": 1,
      "byteOffset": 11795760,
      "componentType": 5126,
      "count": 65532,
      "max": [
        0.9999959468841553,
        0.9999918937683105,
        1.0
      ],
      "min": [
        -0.9999170899391174,
        -0.9999960064888,
        -1.0
      ],
      "type": "VEC3"
    },
    {
      "bufferView": 0,
      "byteOffset": 8707704,
      "componentType": 5125,
      "count": 306663,
      "type": "SCALAR"
    },
    {
      "bufferView": 1,
      "byteOffset": 12582144,
      "componentType": 5126,
      "count": 65532,
      "max": [
        7.226953983306885,
        4.368258476257324,
        6.497647285461426
      ],
      "min": [
        0.07394218444824219,
        0.09464788436889648,
        0.5561060905456543
      ],
      "type": "VEC3"
    },
    {
      "bufferView": 1,
      "byteOffset": 13368528,
      "componentType": 5126,
      "count": 65532,
      "max": [
        0.9999909400939941,
        0.9999748468399048,
        0.9999972581863403
      ],
      "min": [
        -0.9999936819076538,
        -0.9999825954437256,
        -1.0
      ],
      "type": "VEC3"
    },
    {
      "bufferView": 0,
      "byteOffset": 9934356,
      "componentType": 5125,
      "count": 296103,
      "type": "SCALAR"
    },
    {
      "bufferView": 1,
      "byteOffset": 14154912,
      "componentType": 5126,
      "count": 65533,
      "max": [
        7.227302074432373,
        4.639483451843262,
        6.742185592651367
      ],
      "min": [
        0.0,
        1.9788742065429688e-05,
        0.0
      ],
      "type": "VEC3"
    },
    {
      "bufferView": 1,
      "byteOffset": 14941308,
      "componentType": 5126,
      "count": 65533,
      "max": [
        0.9999959468841553,
        0.9999972581863403,
        1.0
      ],
      "min": [
        -0.9999629855155945,
        -0.9999793767929077,
        -1.0
      ],
      "type": "VEC3"
    },
    {
      "bufferView": 0,
      "byteOffset": 11118768,
      "componentType": 5125,
      "count": 278283,
      "type": "SCALAR"
    },
    {
      "bufferView": 1,
      "byteOffset": 15727704,
      "componentType": 5126,
      "count": 65532,
      "max": [
        7.189487934112549,
        4.678004264831543,
        6.760937690734863
      ],
      "min": [
        0.0894474983215332,
        4.982948303222656e-05,
        0.0
      ],
      "type": "VEC3"
    },
    {
      "bufferView": 1,
      "byteOffset": 16514088,
      "componentType": 5126,
      "count": 65532,
      "max": [
        0.9999684691429138,
        0.9999972581863403,
        0.9999999403953552
      ],
      "min": [
        -0.9999940395355225,
        -0.9999912977218628,
        -1.0
      ],
      "type": "VEC3"
    },
    {
      "bufferView": 0,
      "byteOffset": 12231900,
      "componentType": 5125,
      "count": 235677,
      "type": "SCALAR"
    },
    {
      "bufferView": 1,
      "byteOffset": 17300472,
      "componentType": 5126,
      "count": 65533,
      "max": [
        7.2435102462768555,
        4.657107353210449,
        6.757588863372803
      ],
      "min": [
        0.0017786026000976563,
        0.0,
        0.0
      ],
      "type": "VEC3"
    },
    {
      "bufferView": 1,
      "byteOffset": 18086868,
      "componentType": 5126,
      "count": 65533,
      "max": [
        0.9999983906745911,
        0.9999585151672363,
        1.0
      ],
      "min": [
        -0.999975860118866,
        -0.999992311000824,
        -1.0
      ],
      "type": "VEC3"
    },
    {
      "bufferView": 0,
      "byteOffset": 13174608,
      "componentType": 5125,
      "count": 158805,
      "type": "SCALAR"
    },
    {
      "bufferView": 1,
      "byteOffset": 18873264,
      "componentType": 5126,
      "count": 30714,
      "max": [
        7.253812789916992,
        4.640165328979492,
        6.730132102966309
      ],
      "min": [
        0.08593273162841797,
        0.032065629959106445,
        0.0001163482666015625
      ],
      "type": "VEC3"
    },
    {
      "bufferView": 1,
      "byteOffset": 19241832,
      "componentType": 5126,
      "count": 30714,
      "max": [
        0.9999302625656128,
        0.9999726414680481,
        1.0
      ],
      "min": [
        -0.9999738335609436,
        -0.999866247177124,
        -1.0
      ],
      "type": "VEC3"
    },
    {
      "bufferView": 0,
      "byteOffset": 13809828,
      "componentType": 5125,
      "count": 41175,
      "type": "SCALAR"
    }
  ],
  "asset": {
    "extras": {
      "author": "vitaliy-savenko (https://sketchfab.com/vitaliy-savenko)",
      "license": "CC-BY-4.0 (http://creativecommons.org/licenses/by/4.0/)",
      "source": "https://sketchfab.com/3d-models/viking-573c7159424e48deab89214416798fbc",
      "title": "viking"
    },
    "generator": "Sketchfab-12.68.0",
    "version": "2.0"
  },
  "bufferViews": [
    {
      "buffer": 0,
      "byteLength": 13974528,
      "name": "floatBufferViews",
      "target": 34963
    },
    {
      "buffer": 0,
      "byteLength": 19610400,
      "byteOffset": 13974528,
      "byteStride": 12,
      "name": "floatBufferViews",
      "target": 34962
    }
  ],
  "buffers": [
    {
      "byteLength": 33584928,
      "uri": "scene.bin"
    }
  ],
  "materials": [
    {
      "doubleSided": true,
      "name": "material_0",
      "pbrMetallicRoughness": {
        "baseColorFactor": [
          0.5906188409193369,
          0.7912979403326302,
          0.7379104087727308,
          1.0
        ],
        "metallicFactor": 0.3,
        "roughnessFactor": 0.55
      }
    }
  ],
  "meshes": [
    {
      "name": "Object_0",
      "primitives": [
        {
          "attributes": {
            "NORMAL": 1,
            "POSITION": 0
          },
          "indices": 2,
          "material": 0,
          "mode": 4
        }
      ]
    },
    {
      "name": "Object_1",
      "primitives": [
        {
          "attributes": {
            "NORMAL": 4,
            "POSITION": 3
          },
          "indices": 5,
          "material": 0,
          "mode": 4
        }
      ]
    },
    {
      "name": "Object_2",
      "primitives": [
        {
          "attributes": {
            "NORMAL": 7,
            "POSITION": 6
          },
          "indices": 8,
          "material": 0,
          "mode": 4
        }
      ]
    },
    {
      "name": "Object_3",
      "primitives": [
        {
          "attributes": {
            "NORMAL": 10,
            "POSITION": 9
          },
          "indices": 11,
          "material": 0,
          "mode": 4
        }
      ]
    },
    {
      "name": "Object_4",
      "primitives": [
        {
          "attributes": {
            "NORMAL": 13,
            "POSITION": 12
          },
          "indices": 14,
          "material": 0,
          "mode": 4
        }
      ]
    },
    {
      "name": "Object_5",
      "primitives": [
        {
          "attributes": {
            "NORMAL": 16,
            "POSITION": 15
          },
          "indices": 17,
          "material": 0,
          "mode": 4
        }
      ]
    },
    {
      "name": "Object_6",
      "primitives": [
        {
          "attributes": {
            "NORMAL": 19,
            "POSITION": 18
          },
          "indices": 20,
          "material": 0,
          "mode": 4
        }
      ]
    },
    {
      "name": "Object_7",
      "primitives": [
        {
          "attributes": {
            "NORMAL": 22,
            "POSITION": 21
          },
          "indices": 23,
          "material": 0,
          "mode": 4
        }
      ]
    },
    {
      "name": "Object_8",
      "primitives": [
        {
          "attributes": {
            "NORMAL": 25,
            "POSITION": 24
          },
          "indices": 26,
          "material": 0,
          "mode": 4
        }
      ]
    },
    {
      "name": "Object_9",
      "primitives": [
        {
          "attributes": {
            "NORMAL": 28,
            "POSITION": 27
          },
          "indices": 29,
          "material": 0,
          "mode": 4
        }
      ]
    },
    {
      "name": "Object_10",
      "primitives": [
        {
          "attributes": {
            "NORMAL": 31,
            "POSITION": 30
          },
          "indices": 32,
          "material": 0,
          "mode": 4
        }
      ]
    },
    {
      "name": "Object_11",
      "primitives": [
        {
          "attributes": {
            "NORMAL": 34,
            "POSITION": 33
          },
          "indices": 35,
          "material": 0,
          "mode": 4
        }
      ]
    },
    {
      "name": "Object_12",
      "primitives": [
        {
          "attributes": {
            "NORMAL": 37,
            "POSITION": 36
          },
          "indices": 38,
          "material": 0,
          "mode": 4
        }
      ]
    }
  ],
  "nodes": [
    {
      "children": [
        1
      ],
      "matrix": [
        1.0,
        0.0,
        0.0,
        0.0,
        0.0,
        2.220446049250313e-16,
        -1.0,
        0.0,
        0.0,
        1.0,
        2.220446049250313e-16,
        0.0,
        0.0,
        0.0,
        0.0,
        1.0
      ],
      "name": "Sketchfab_model"
    },
    {
      "children": [
        2
      ],
      "matrix": [
        1.0,
        0.0,
        0.0,
        0.0,
        0.0,
        1.0,
        0.0,
        0.0,
        0.0,
        0.0,
        1.0,
        0.0,
        -4.526185989379883,
        -2.183013677597046,
        -5.188802719116211,
        1.0
      ],
      "name": "Merged_Extract8.OBJ.cleaner.gles"
    },
    {
      "children": [
        3,
        4,
        5,
        6,
        7,
        8,
        9,
        10,
        11,
        12,
        13,
        14,
        15
      ],
      "name": "Object_2"
    },
    {
      "mesh": 0,
      "name": "Object_3"
    },
    {
      "mesh": 1,
      "name": "Object_4"
    },
    {
      "mesh": 2,
      "name": "Object_5"
    },
    {
      "mesh": 3,
      "name": "Object_6"
    },
    {
      "mesh": 4,
      "name": "Object_7"
    },
    {
      "mesh": 5,
      "name": "Object_8"
    },
    {
      "mesh": 6,
      "name": "Object_9"
    },
    {
      "mesh": 7,
      "name": "Object_10"
    },
    {
      "mesh": 8,
      "name": "Object_11"
    },
    {
      "mesh": 9,
      "name": "Object_12"
    },
    {
      "mesh": 10,
      "name": "Object_13"
    },
    {
      "mesh": 11,
      "name": "Object_14"
    },
    {
      "mesh": 12,
      "name": "Object_15"
    }
  ],
  "scene": 0,
  "scenes": [
    {
      "name": "Sketchfab_Scene",
      "nodes": [
        0
      ]
    }
  ]
}
